<svg width="49" height="49" viewBox="0 0 49 49" fill="none" xmlns="http://www.w3.org/2000/svg">
<path d="M24.6591 0C18.2538 0 12.1108 2.5445 7.58156 7.07375C3.05232 11.603 0.507813 17.746 0.507812 24.1513C0.507813 30.5566 3.05232 36.6996 7.58156 41.2288C12.1108 45.7581 18.2538 48.3026 24.6591 48.3026C31.0644 48.3026 37.2074 45.7581 41.7366 41.2288C46.2659 36.6996 48.8104 30.5566 48.8104 24.1513C48.8104 17.746 46.2659 11.603 41.7366 7.07375C37.2074 2.5445 31.0644 0 24.6591 0ZM31.025 43.8406H30.8378C30.6972 43.8486 30.5565 43.8277 30.4243 43.7792C30.2921 43.7308 30.1712 43.6558 30.069 43.5589C29.9746 43.4591 29.901 43.3415 29.8527 43.2129C29.8043 43.0844 29.782 42.9474 29.7872 42.8102V39.9804C29.7993 39.0406 29.8074 38.0886 29.8074 37.1306C29.8041 36.4301 29.7017 35.7335 29.5034 35.0616C29.3156 34.3824 28.937 33.7713 28.4126 33.3006C29.8154 33.1652 31.1944 32.8465 32.5143 32.3527C33.6277 31.9293 34.6348 31.267 35.4648 30.4125C36.2839 29.5531 36.8937 28.5146 37.2459 27.3815C37.6744 25.9939 37.8782 24.5467 37.8497 23.0947C37.8576 22.0809 37.6802 21.0742 37.3265 20.1241C36.967 19.1665 36.4234 18.2885 35.7264 17.5399C35.8769 17.1623 35.9862 16.7696 36.0525 16.3685C36.1189 15.966 36.1531 15.5595 36.1531 15.1529C36.1531 14.6296 36.0927 14.1064 35.972 13.5972C35.8623 13.0749 35.7136 12.5616 35.5272 12.0616C35.456 12.0338 35.3802 12.0201 35.3038 12.0213H35.0824C34.6195 12.0253 34.1646 12.1018 33.7259 12.2447C33.2426 12.3858 32.7698 12.5606 32.311 12.768C31.8548 12.9725 31.4106 13.203 30.9807 13.4583C30.548 13.7139 30.1656 13.9594 29.8275 14.1869C26.4417 13.2432 22.8624 13.2432 19.4766 14.1869C19.099 13.9344 18.7152 13.6915 18.3254 13.4583C17.8894 13.2008 17.4377 12.971 16.973 12.77C16.5154 12.5558 16.0408 12.3801 15.5541 12.2447C15.124 12.1026 14.6746 12.0273 14.2217 12.0213H14.0003C13.9246 12.0202 13.8494 12.0339 13.7789 12.0616C13.5899 12.5623 13.4352 13.0754 13.316 13.5972C13.2074 14.1084 13.155 14.6296 13.153 15.1529C13.153 15.5595 13.1872 15.966 13.2557 16.3685C13.3221 16.769 13.4288 17.1615 13.5777 17.5399C12.8825 18.2895 12.341 19.1682 11.9837 20.1261C11.628 21.0758 11.4487 22.0825 11.4544 23.0967C11.4262 24.5409 11.6245 25.9806 12.0421 27.3634C12.4063 28.4965 13.0142 29.537 13.8212 30.4145C14.6564 31.2638 15.6627 31.924 16.7717 32.3547C18.0859 32.8578 19.4626 33.1798 20.8633 33.3127C20.4722 33.6672 20.162 34.1017 19.9536 34.5867C19.7554 35.0663 19.6201 35.5696 19.5511 36.084C18.8126 36.4376 18.005 36.6232 17.1863 36.6274C16.4259 36.6579 15.6755 36.4465 15.0429 36.0237C14.4359 35.5739 13.922 35.0107 13.5294 34.3653C13.3537 34.0942 13.1572 33.8371 12.9417 33.5965C12.7144 33.3434 12.4637 33.1122 12.193 32.9061C11.9262 32.7068 11.6338 32.5443 11.3236 32.4231C11.0184 32.2893 10.6888 32.2201 10.3555 32.2198C10.275 32.2218 10.1945 32.2299 10.114 32.24C10.004 32.2396 9.8945 32.2531 9.78795 32.2802C9.6943 32.3047 9.60572 32.3456 9.52631 32.401C9.4902 32.4209 9.46001 32.45 9.4388 32.4853C9.41759 32.5207 9.40612 32.561 9.40555 32.6022C9.414 32.6991 9.44362 32.7929 9.49231 32.8771C9.54099 32.9612 9.60756 33.0337 9.68731 33.0893C9.87449 33.2382 10.0295 33.3529 10.1542 33.4334L10.2146 33.4757C10.4823 33.683 10.7399 33.9064 10.9834 34.1459C11.2088 34.3431 11.4121 34.5665 11.5872 34.8101C11.7684 35.0496 11.9253 35.3052 12.0521 35.5769C12.199 35.8466 12.354 36.1565 12.517 36.5087C12.8954 37.4627 13.5676 38.2697 14.4371 38.8131C15.3488 39.3022 16.3712 39.5457 17.4077 39.5196C17.7579 39.5196 18.1101 39.4994 18.4583 39.4592C18.8044 39.4028 19.1486 39.3445 19.4948 39.276V42.784C19.501 42.9255 19.4774 43.0666 19.4253 43.1983C19.3733 43.33 19.2941 43.4492 19.1929 43.5482C19.0916 43.6471 18.9706 43.7236 18.8378 43.7726C18.705 43.8216 18.5633 43.8421 18.422 43.8326H18.2973C13.6039 42.3164 9.60614 39.1744 7.02376 34.9723C4.44139 30.7702 3.44414 25.7842 4.21158 20.9122C4.97901 16.0401 7.46072 11.6021 11.2098 8.39732C14.9589 5.19257 19.729 3.43164 24.6611 3.43164C29.5933 3.43164 34.3634 5.19257 38.1124 8.39732C41.8615 11.6021 44.3432 16.0401 45.1107 20.9122C45.8781 25.7842 44.8808 30.7702 42.2985 34.9723C39.7161 39.1744 35.7183 42.3164 31.025 43.8326V43.8406Z" fill="#F8F8F8"/>
</svg>
