<svg width="78" height="78" viewBox="0 0 78 78" fill="none" xmlns="http://www.w3.org/2000/svg">
<g clip-path="url(#clip0_1160_2174)">
<g clip-path="url(#clip1_1160_2174)">
<path d="M1.85714 3.71429C2.88281 3.71429 3.71429 2.88281 3.71429 1.85714C3.71429 0.831471 2.88281 0 1.85714 0C0.831471 0 0 0.831471 0 1.85714C0 2.88281 0.831471 3.71429 1.85714 3.71429Z" fill="#ABB2BF"/>
<path d="M20.4284 3.71429C21.4541 3.71429 22.2856 2.88281 22.2856 1.85714C22.2856 0.831471 21.4541 0 20.4284 0C19.4028 0 18.5713 0.831471 18.5713 1.85714C18.5713 2.88281 19.4028 3.71429 20.4284 3.71429Z" fill="#ABB2BF"/>
<path d="M38.9997 3.71429C40.0254 3.71429 40.8569 2.88281 40.8569 1.85714C40.8569 0.831471 40.0254 0 38.9997 0C37.974 0 37.1426 0.831471 37.1426 1.85714C37.1426 2.88281 37.974 3.71429 38.9997 3.71429Z" fill="#ABB2BF"/>
<path d="M57.572 3.71429C58.5977 3.71429 59.4291 2.88281 59.4291 1.85714C59.4291 0.831471 58.5977 0 57.572 0C56.5463 0 55.7148 0.831471 55.7148 1.85714C55.7148 2.88281 56.5463 3.71429 57.572 3.71429Z" fill="#ABB2BF"/>
<path d="M76.1433 3.71429C77.1689 3.71429 78.0004 2.88281 78.0004 1.85714C78.0004 0.831471 77.1689 0 76.1433 0C75.1176 0 74.2861 0.831471 74.2861 1.85714C74.2861 2.88281 75.1176 3.71429 76.1433 3.71429Z" fill="#ABB2BF"/>
<path d="M1.85714 22.2846C2.88281 22.2846 3.71429 21.4531 3.71429 20.4275C3.71429 19.4018 2.88281 18.5703 1.85714 18.5703C0.831471 18.5703 0 19.4018 0 20.4275C0 21.4531 0.831471 22.2846 1.85714 22.2846Z" fill="#ABB2BF"/>
<path d="M20.4284 22.2846C21.4541 22.2846 22.2856 21.4531 22.2856 20.4275C22.2856 19.4018 21.4541 18.5703 20.4284 18.5703C19.4028 18.5703 18.5713 19.4018 18.5713 20.4275C18.5713 21.4531 19.4028 22.2846 20.4284 22.2846Z" fill="#ABB2BF"/>
<path d="M38.9997 22.2846C40.0254 22.2846 40.8569 21.4531 40.8569 20.4275C40.8569 19.4018 40.0254 18.5703 38.9997 18.5703C37.974 18.5703 37.1426 19.4018 37.1426 20.4275C37.1426 21.4531 37.974 22.2846 38.9997 22.2846Z" fill="#ABB2BF"/>
<path d="M57.572 22.2846C58.5977 22.2846 59.4291 21.4531 59.4291 20.4275C59.4291 19.4018 58.5977 18.5703 57.572 18.5703C56.5463 18.5703 55.7148 19.4018 55.7148 20.4275C55.7148 21.4531 56.5463 22.2846 57.572 22.2846Z" fill="#ABB2BF"/>
<path d="M76.1433 22.2846C77.1689 22.2846 78.0004 21.4531 78.0004 20.4275C78.0004 19.4018 77.1689 18.5703 76.1433 18.5703C75.1176 18.5703 74.2861 19.4018 74.2861 20.4275C74.2861 21.4531 75.1176 22.2846 76.1433 22.2846Z" fill="#ABB2BF"/>
<path d="M1.85714 40.8588C2.88281 40.8588 3.71429 40.0273 3.71429 39.0017C3.71429 37.976 2.88281 37.1445 1.85714 37.1445C0.831471 37.1445 0 37.976 0 39.0017C0 40.0273 0.831471 40.8588 1.85714 40.8588Z" fill="#ABB2BF"/>
<path d="M20.4284 40.8588C21.4541 40.8588 22.2856 40.0273 22.2856 39.0017C22.2856 37.976 21.4541 37.1445 20.4284 37.1445C19.4028 37.1445 18.5713 37.976 18.5713 39.0017C18.5713 40.0273 19.4028 40.8588 20.4284 40.8588Z" fill="#ABB2BF"/>
<path d="M38.9997 40.8588C40.0254 40.8588 40.8569 40.0273 40.8569 39.0017C40.8569 37.976 40.0254 37.1445 38.9997 37.1445C37.974 37.1445 37.1426 37.976 37.1426 39.0017C37.1426 40.0273 37.974 40.8588 38.9997 40.8588Z" fill="#ABB2BF"/>
<path d="M57.572 40.8588C58.5977 40.8588 59.4291 40.0273 59.4291 39.0017C59.4291 37.976 58.5977 37.1445 57.572 37.1445C56.5463 37.1445 55.7148 37.976 55.7148 39.0017C55.7148 40.0273 56.5463 40.8588 57.572 40.8588Z" fill="#ABB2BF"/>
<path d="M76.1433 40.8588C77.1689 40.8588 78.0004 40.0273 78.0004 39.0017C78.0004 37.976 77.1689 37.1445 76.1433 37.1445C75.1176 37.1445 74.2861 37.976 74.2861 39.0017C74.2861 40.0273 75.1176 40.8588 76.1433 40.8588Z" fill="#ABB2BF"/>
<path d="M1.85714 59.4291C2.88281 59.4291 3.71429 58.5977 3.71429 57.572C3.71429 56.5463 2.88281 55.7148 1.85714 55.7148C0.831471 55.7148 0 56.5463 0 57.572C0 58.5977 0.831471 59.4291 1.85714 59.4291Z" fill="#ABB2BF"/>
<path d="M20.4284 59.4291C21.4541 59.4291 22.2856 58.5977 22.2856 57.572C22.2856 56.5463 21.4541 55.7148 20.4284 55.7148C19.4028 55.7148 18.5713 56.5463 18.5713 57.572C18.5713 58.5977 19.4028 59.4291 20.4284 59.4291Z" fill="#ABB2BF"/>
<path d="M38.9997 59.4291C40.0254 59.4291 40.8569 58.5977 40.8569 57.572C40.8569 56.5463 40.0254 55.7148 38.9997 55.7148C37.974 55.7148 37.1426 56.5463 37.1426 57.572C37.1426 58.5977 37.974 59.4291 38.9997 59.4291Z" fill="#ABB2BF"/>
<path d="M57.572 59.4291C58.5977 59.4291 59.4291 58.5977 59.4291 57.572C59.4291 56.5463 58.5977 55.7148 57.572 55.7148C56.5463 55.7148 55.7148 56.5463 55.7148 57.572C55.7148 58.5977 56.5463 59.4291 57.572 59.4291Z" fill="#ABB2BF"/>
<path d="M76.1433 59.4291C77.1689 59.4291 78.0004 58.5977 78.0004 57.572C78.0004 56.5463 77.1689 55.7148 76.1433 55.7148C75.1176 55.7148 74.2861 56.5463 74.2861 57.572C74.2861 58.5977 75.1176 59.4291 76.1433 59.4291Z" fill="#ABB2BF"/>
<path d="M1.85714 78.0033C2.88281 78.0033 3.71429 77.1719 3.71429 76.1462C3.71429 75.1205 2.88281 74.2891 1.85714 74.2891C0.831471 74.2891 0 75.1205 0 76.1462C0 77.1719 0.831471 78.0033 1.85714 78.0033Z" fill="#ABB2BF"/>
<path d="M20.4284 78.0033C21.4541 78.0033 22.2856 77.1719 22.2856 76.1462C22.2856 75.1205 21.4541 74.2891 20.4284 74.2891C19.4028 74.2891 18.5713 75.1205 18.5713 76.1462C18.5713 77.1719 19.4028 78.0033 20.4284 78.0033Z" fill="#ABB2BF"/>
<path d="M38.9997 78.0033C40.0254 78.0033 40.8569 77.1719 40.8569 76.1462C40.8569 75.1205 40.0254 74.2891 38.9997 74.2891C37.974 74.2891 37.1426 75.1205 37.1426 76.1462C37.1426 77.1719 37.974 78.0033 38.9997 78.0033Z" fill="#ABB2BF"/>
<path d="M57.572 78.0033C58.5977 78.0033 59.4291 77.1719 59.4291 76.1462C59.4291 75.1205 58.5977 74.2891 57.572 74.2891C56.5463 74.2891 55.7148 75.1205 55.7148 76.1462C55.7148 77.1719 56.5463 78.0033 57.572 78.0033Z" fill="#ABB2BF"/>
<path d="M76.1433 78.0033C77.1689 78.0033 78.0004 77.1719 78.0004 76.1462C78.0004 75.1205 77.1689 74.2891 76.1433 74.2891C75.1176 74.2891 74.2861 75.1205 74.2861 76.1462C74.2861 77.1719 75.1176 78.0033 76.1433 78.0033Z" fill="#ABB2BF"/>
</g>
</g>
<defs>
<clipPath id="clip0_1160_2174">
<rect width="78" height="78" fill="white"/>
</clipPath>
<clipPath id="clip1_1160_2174">
<rect width="78" height="78" fill="white"/>
</clipPath>
</defs>
</svg>
