<svg width="50" height="49" viewBox="0 0 50 49" fill="none" xmlns="http://www.w3.org/2000/svg">
<path d="M37.8547 -0.00390625H12.194C5.94159 -0.00390625 0.873047 5.06464 0.873047 11.317V36.9778C0.873047 43.2301 5.94159 48.2987 12.194 48.2987H37.8547C44.1071 48.2987 49.1756 43.2301 49.1756 36.9778V11.317C49.1756 5.06464 44.1071 -0.00390625 37.8547 -0.00390625Z" fill="url(#paint0_radial_1166_608)"/>
<path d="M37.8547 -0.00390625H12.194C5.94159 -0.00390625 0.873047 5.06464 0.873047 11.317V36.9778C0.873047 43.2301 5.94159 48.2987 12.194 48.2987H37.8547C44.1071 48.2987 49.1756 43.2301 49.1756 36.9778V11.317C49.1756 5.06464 44.1071 -0.00390625 37.8547 -0.00390625Z" fill="#1E1E1E"/>
<path d="M25.0261 5.27734C19.9019 5.27734 19.2587 5.2998 17.2462 5.39131C15.2375 5.48338 13.8664 5.80131 12.6667 6.26792C11.4256 6.74982 10.3729 7.39454 9.32422 8.44362C8.27458 9.4925 7.62986 10.5452 7.14645 11.7857C6.67852 12.9858 6.36022 14.3575 6.26984 16.3652C6.17984 18.3779 6.15625 19.0213 6.15625 24.1457C6.15625 29.2701 6.17889 29.9113 6.27021 31.9238C6.36267 33.9325 6.6806 35.3036 7.14683 36.5033C7.6291 37.7444 8.27383 38.7971 9.3229 39.8458C10.3714 40.8954 11.4241 41.5416 12.6643 42.0235C13.8649 42.4901 15.2362 42.8081 17.2445 42.9001C19.2572 42.9917 19.8998 43.0141 25.0239 43.0141C30.1487 43.0141 30.7898 42.9917 32.8023 42.9001C34.811 42.8081 36.1837 42.4901 37.3842 42.0235C38.6248 41.5416 39.676 40.8954 40.7243 39.8458C41.7739 38.7971 42.4185 37.7444 42.9021 36.5038C43.3658 35.3036 43.6843 33.9321 43.7787 31.9241C43.8691 29.9117 43.8926 29.2701 43.8926 24.1457C43.8926 19.0213 43.8691 18.3783 43.7787 16.3656C43.6843 14.3569 43.3658 12.9859 42.9021 11.7863C42.4185 10.5452 41.7739 9.4925 40.7243 8.44362C39.6748 7.39417 38.6252 6.74944 37.3831 6.26811C36.1803 5.80131 34.8084 5.4832 32.7997 5.39131C30.787 5.2998 30.1462 5.27734 25.0203 5.27734H25.0261ZM23.3335 8.67758C23.8359 8.67683 24.3965 8.67758 25.0261 8.67758C30.0641 8.67758 30.6611 8.69569 32.6506 8.78607C34.4902 8.87023 35.4887 9.17759 36.1539 9.43589C37.0344 9.77779 37.6622 10.1867 38.3222 10.8472C38.9826 11.5076 39.3913 12.1365 39.7341 13.0171C39.9924 13.6812 40.3001 14.6797 40.3839 16.5194C40.4743 18.5085 40.4939 19.1058 40.4939 24.1414C40.4939 29.1769 40.4743 29.7745 40.3839 31.7634C40.2998 33.603 39.9924 34.6015 39.7341 35.2659C39.3922 36.1465 38.9826 36.7735 38.3222 37.4335C37.6618 38.0939 37.0348 38.5025 36.1539 38.8446C35.4895 39.1041 34.4902 39.4107 32.6506 39.4948C30.6615 39.5852 30.0641 39.6048 25.0261 39.6048C19.988 39.6048 19.3908 39.5852 17.4019 39.4948C15.5622 39.4099 14.5637 39.1025 13.8981 38.8442C13.0177 38.5022 12.3886 38.0935 11.7282 37.4331C11.0678 36.7727 10.6591 36.1453 10.3163 35.2644C10.058 34.6 9.75026 33.6015 9.66649 31.7619C9.57611 29.7728 9.558 29.1754 9.558 24.1367C9.558 19.0981 9.57611 18.5038 9.66649 16.5147C9.75064 14.675 10.058 13.6765 10.3163 13.0114C10.6584 12.1308 11.0678 11.502 11.7284 10.8416C12.3888 10.1812 13.0177 9.77231 13.8982 9.42967C14.5634 9.17023 15.5622 8.86362 17.4019 8.77909C19.1425 8.70041 19.817 8.67683 23.3335 8.67286V8.67758ZM35.098 11.8105C33.848 11.8105 32.8338 12.8237 32.8338 14.0739C32.8338 15.3239 33.848 16.3381 35.098 16.3381C36.348 16.3381 37.3622 15.3239 37.3622 14.0739C37.3622 12.8239 36.348 11.8097 35.098 11.8097V11.8105ZM25.0261 14.456C19.6751 14.456 15.3366 18.7945 15.3366 24.1457C15.3366 29.4969 19.6751 33.8334 25.0261 33.8334C30.3774 33.8334 34.7144 29.4969 34.7144 24.1457C34.7144 18.7947 30.377 14.456 25.0258 14.456H25.0261ZM25.0261 17.8562C28.4996 17.8562 31.3157 20.6719 31.3157 24.1457C31.3157 27.6192 28.4996 30.4353 25.0261 30.4353C21.5525 30.4353 18.7368 27.6192 18.7368 24.1457C18.7368 20.6719 21.5525 17.8562 25.0261 17.8562Z" fill="white"/>
<defs>
<radialGradient id="paint0_radial_1166_608" cx="0" cy="0" r="1" gradientUnits="userSpaceOnUse" gradientTransform="translate(13.7034 52.0189) rotate(-90) scale(47.8714 44.5242)">
<stop stop-color="#1E1E1E"/>
<stop offset="0.1" stop-color="#FFDD55"/>
<stop offset="0.5" stop-color="#FF543E"/>
<stop offset="1" stop-color="#C837AB"/>
</radialGradient>
</defs>
</svg>
