<svg width="34" height="34" viewBox="0 0 34 34" fill="none" xmlns="http://www.w3.org/2000/svg">
<path d="M1.13813 11.385H7.97219V33.374H1.13813V11.385ZM4.55705 0.441406C5.34088 0.441407 6.10711 0.673888 6.75879 1.10944C7.41047 1.54499 7.91833 2.16405 8.21812 2.88829C8.5179 3.61253 8.59615 4.40941 8.44296 5.17813C8.28976 5.94684 7.91201 6.65286 7.3575 7.20685C6.80298 7.76084 6.09661 8.13791 5.32774 8.29037C4.55888 8.44283 3.76207 8.36383 3.03812 8.06335C2.31416 7.76287 1.6956 7.25443 1.26066 6.60233C0.825733 5.95023 0.593982 5.18379 0.594728 4.39995C0.595729 3.34974 1.01363 2.34287 1.7566 1.60061C2.49957 0.858345 3.50683 0.441406 4.55705 0.441406ZM12.259 11.385H18.8101V14.4039H18.9007C19.8139 12.6755 22.0403 10.8529 25.3649 10.8529C32.2858 10.8378 33.5688 15.3926 33.5688 21.2983V33.374H26.7347V22.6757C26.7347 20.1285 26.6894 16.8492 23.1837 16.8492C19.678 16.8492 19.0818 19.6266 19.0818 22.5096V33.374H12.259V11.385Z" fill="white"/>
</svg>
